<svg width="67" height="20" viewBox="0 0 67 20" fill="none" xmlns="http://www.w3.org/2000/svg">
<path d="M0 2.5C0 1.83696 0.280951 1.20107 0.781048 0.732233C1.28115 0.263392 1.95942 0 2.66667 0L13.3333 0C14.0406 0 14.7189 0.263392 15.219 0.732233C15.719 1.20107 16 1.83696 16 2.5V19.375C15.9999 19.4881 15.9672 19.599 15.9052 19.6959C15.8432 19.7929 15.7543 19.8723 15.648 19.9257C15.5417 19.979 15.4219 20.0044 15.3015 19.999C15.181 19.9936 15.0644 19.9576 14.964 19.895L8 16.3762L1.036 19.895C0.935607 19.9576 0.818974 19.9936 0.698522 19.999C0.57807 20.0044 0.458311 19.979 0.351999 19.9257C0.245688 19.8723 0.156805 19.7929 0.0948188 19.6959C0.032832 19.599 6.22939e-05 19.4881 0 19.375V2.5ZM2.66667 1.25C2.31304 1.25 1.97391 1.3817 1.72386 1.61612C1.47381 1.85054 1.33333 2.16848 1.33333 2.5V18.2075L7.63067 15.105C7.74008 15.0367 7.86857 15.0003 8 15.0003C8.13143 15.0003 8.25992 15.0367 8.36933 15.105L14.6667 18.2075V2.5C14.6667 2.16848 14.5262 1.85054 14.2761 1.61612C14.0261 1.3817 13.687 1.25 13.3333 1.25H2.66667Z" fill="#007F73"/>
<path d="M28.792 9.73985C29.4427 9.87851 29.9653 10.2038 30.36 10.7158C30.7547 11.2172 30.952 11.7932 30.952 12.4438C30.952 13.3825 30.6213 14.1292 29.96 14.6838C29.3093 15.2278 28.3973 15.4998 27.224 15.4998H21.992V4.26785H27.048C28.1893 4.26785 29.08 4.52918 29.72 5.05185C30.3707 5.57451 30.696 6.28385 30.696 7.17985C30.696 7.84118 30.52 8.39051 30.168 8.82785C29.8267 9.26518 29.368 9.56918 28.792 9.73985ZM24.728 8.81185H26.52C26.968 8.81185 27.3093 8.71585 27.544 8.52385C27.7893 8.32118 27.912 8.02785 27.912 7.64385C27.912 7.25985 27.7893 6.96651 27.544 6.76385C27.3093 6.56118 26.968 6.45985 26.52 6.45985H24.728V8.81185ZM26.744 13.2918C27.2027 13.2918 27.5547 13.1905 27.8 12.9878C28.056 12.7745 28.184 12.4705 28.184 12.0758C28.184 11.6812 28.0507 11.3718 27.784 11.1478C27.528 10.9238 27.1707 10.8118 26.712 10.8118H24.728V13.2918H26.744ZM36.6029 15.6278C35.7282 15.6278 34.9389 15.4412 34.2349 15.0678C33.5415 14.6945 32.9922 14.1612 32.5869 13.4678C32.1922 12.7745 31.9949 11.9638 31.9949 11.0358C31.9949 10.1185 32.1975 9.31318 32.6029 8.61985C33.0082 7.91585 33.5629 7.37718 34.2669 7.00385C34.9709 6.63051 35.7602 6.44385 36.6349 6.44385C37.5095 6.44385 38.2989 6.63051 39.0029 7.00385C39.7069 7.37718 40.2615 7.91585 40.6669 8.61985C41.0722 9.31318 41.2749 10.1185 41.2749 11.0358C41.2749 11.9532 41.0669 12.7638 40.6509 13.4678C40.2455 14.1612 39.6855 14.6945 38.9709 15.0678C38.2669 15.4412 37.4775 15.6278 36.6029 15.6278ZM36.6029 13.2598C37.1255 13.2598 37.5682 13.0678 37.9309 12.6838C38.3042 12.2998 38.4909 11.7505 38.4909 11.0358C38.4909 10.3212 38.3095 9.77185 37.9469 9.38785C37.5949 9.00385 37.1575 8.81185 36.6349 8.81185C36.1015 8.81185 35.6589 9.00385 35.3069 9.38785C34.9549 9.76118 34.7789 10.3105 34.7789 11.0358C34.7789 11.7505 34.9495 12.2998 35.2909 12.6838C35.6429 13.0678 36.0802 13.2598 36.6029 13.2598ZM46.7904 15.6278C45.9157 15.6278 45.1264 15.4412 44.4224 15.0678C43.729 14.6945 43.1797 14.1612 42.7744 13.4678C42.3797 12.7745 42.1824 11.9638 42.1824 11.0358C42.1824 10.1185 42.385 9.31318 42.7904 8.61985C43.1957 7.91585 43.7504 7.37718 44.4544 7.00385C45.1584 6.63051 45.9477 6.44385 46.8224 6.44385C47.697 6.44385 48.4864 6.63051 49.1904 7.00385C49.8944 7.37718 50.449 7.91585 50.8544 8.61985C51.2597 9.31318 51.4624 10.1185 51.4624 11.0358C51.4624 11.9532 51.2544 12.7638 50.8384 13.4678C50.433 14.1612 49.873 14.6945 49.1584 15.0678C48.4544 15.4412 47.665 15.6278 46.7904 15.6278ZM46.7904 13.2598C47.313 13.2598 47.7557 13.0678 48.1184 12.6838C48.4917 12.2998 48.6784 11.7505 48.6784 11.0358C48.6784 10.3212 48.497 9.77185 48.1344 9.38785C47.7824 9.00385 47.345 8.81185 46.8224 8.81185C46.289 8.81185 45.8464 9.00385 45.4944 9.38785C45.1424 9.76118 44.9664 10.3105 44.9664 11.0358C44.9664 11.7505 45.137 12.2998 45.4784 12.6838C45.8304 13.0678 46.2677 13.2598 46.7904 13.2598ZM58.3699 15.4998L55.6499 11.7558V15.4998H52.9139V3.65985H55.6499V10.2038L58.3539 6.57185H61.7299L58.0179 11.0518L61.7619 15.4998H58.3699ZM64.0845 15.6278C63.6045 15.6278 63.2098 15.4892 62.9005 15.2118C62.6018 14.9238 62.4525 14.5718 62.4525 14.1558C62.4525 13.7292 62.6018 13.3718 62.9005 13.0838C63.2098 12.7958 63.6045 12.6518 64.0845 12.6518C64.5538 12.6518 64.9378 12.7958 65.2365 13.0838C65.5458 13.3718 65.7005 13.7292 65.7005 14.1558C65.7005 14.5718 65.5458 14.9238 65.2365 15.2118C64.9378 15.4892 64.5538 15.6278 64.0845 15.6278Z" fill="#292929"/>
</svg>
